# This file uses centimeters as units for non-parametric coordinates.

mtllib box.mtl
g default
v 169.813065 53.075783 48.913864
v 169.813065 38.095016 48.913864
v 159.352341 38.095016 48.362537
v 159.352341 53.075783 48.362537
v 170.402786 53.075783 37.724438
v 159.942078 53.075783 37.173115
v 170.402786 38.095016 37.724438
v 159.942078 38.095016 37.173115
v 170.506287 51.489586 35.760738
v 169.717834 51.489586 50.720745
v 160.045563 51.489586 35.209415
v 159.257111 51.489586 50.169418
v 171.882080 51.489586 49.022907
v 156.922073 51.489586 48.234451
v 172.471802 51.489586 37.833485
v 157.511795 51.489586 37.045029
v 170.506287 40.274986 35.760738
v 169.717834 40.274986 50.720745
v 160.045563 40.274986 35.209415
v 159.257111 40.274986 50.169418
v 171.882080 40.274986 49.022907
v 156.922073 40.274986 48.234451
v 172.471802 40.274986 37.833485
v 157.511795 40.274986 37.045029
v 169.675552 37.291767 51.522881
v 172.407272 37.439167 51.519249
v 172.546707 51.489586 51.674198
v 172.407272 53.731632 51.519249
v 159.214828 53.879036 50.971558
v 156.137375 53.731632 50.661755
v 155.982422 40.274986 50.801193
v 156.137375 37.439167 50.661755
v 156.119934 37.291767 48.192177
v 156.709671 53.879036 37.002750
v 156.994873 53.731632 34.391872
v 156.855438 40.274986 34.236916
v 156.994873 37.439167 34.391872
v 160.087845 37.291767 34.407280
v 170.548569 53.879036 34.958603
v 173.264755 53.731632 35.249363
v 173.419708 40.274986 35.109924
v 173.264755 37.439167 35.249363
v 173.273941 37.291767 37.875759
v 172.684204 53.879036 49.065186
v 159.214828 37.291767 50.971558
v 169.675552 53.879036 51.522881
v 170.548569 37.291767 34.958603
v 160.087845 53.879036 34.407280
v 170.402786 54.211746 37.724438
v 169.813065 36.959053 48.913864
v 170.566071 40.274986 34.626347
v 169.658051 40.274986 51.855133
v 160.105347 40.274986 34.075024
v 159.352341 36.959053 48.362537
v 159.942078 54.211746 37.173115
v 159.197327 40.274986 51.303810
v 156.709671 37.291767 37.002750
v 156.119934 53.879036 48.192177
v 172.684204 37.291767 49.065186
v 173.273941 53.879036 37.875759
v 169.813065 54.211746 48.913864
v 170.402786 36.959053 37.724438
v 159.942078 36.959053 37.173115
v 159.352341 54.211746 48.362537
v 173.016464 40.274986 49.082695
v 155.787674 40.274986 48.174664
v 173.606201 40.274986 37.893272
v 156.377411 40.274986 36.985241
v 172.546707 40.274986 51.674198
v 155.982422 51.489586 50.801193
v 156.855438 51.489586 34.236916
v 173.419708 51.489586 35.109924
v 170.566071 51.489586 34.626347
v 169.658051 51.489586 51.855133
v 160.105347 51.489586 34.075024
v 159.197327 51.489586 51.303810
v 173.016464 51.489586 49.082695
v 155.787674 51.489586 48.174664
v 173.606201 51.489586 37.893272
v 156.377411 51.489586 36.985241
vt 0.543384 0.571380
vt 0.543384 0.758007
vt 0.524506 0.758007
vt 0.524506 0.571380
vt 0.761387 0.571380
vt 0.761387 0.758007
vt 0.575179 0.758007
vt 0.575179 0.571380
vt 0.487496 0.762575
vt 0.487496 0.948782
vt 0.468592 0.948782
vt 0.468592 0.762575
vt 0.954333 0.561949
vt 0.954333 0.748576
vt 0.768125 0.748576
vt 0.768125 0.561949
vt 0.462457 0.762575
vt 0.462457 0.948783
vt 0.443553 0.948783
vt 0.443553 0.762575
vt 0.418513 0.948782
vt 0.418513 0.762575
vt 0.437417 0.762575
vt 0.437417 0.948782
vt 0.393474 0.948782
vt 0.393474 0.762575
vt 0.412378 0.762575
vt 0.412378 0.948782
vt 0.562535 0.761999
vt 0.562535 0.948625
vt 0.543657 0.948625
vt 0.543657 0.761999
vt 0.518644 0.949201
vt 0.518644 0.762575
vt 0.537522 0.762575
vt 0.537522 0.949201
vt 0.493631 0.949201
vt 0.493631 0.762575
vt 0.512509 0.762575
vt 0.512509 0.949201
vt 0.768091 0.518194
vt 0.768382 0.557958
vt 0.724934 0.555505
vt 0.722355 0.518194
vt 0.954299 0.518194
vt 0.954590 0.557958
vt 0.768091 0.331567
vt 0.722355 0.331567
vt 0.998008 0.518194
vt 0.995687 0.555505
vt 0.768382 0.281922
vt 0.724934 0.284375
vt 0.998008 0.331567
vt 0.954299 0.331567
vt 0.954590 0.281922
vt 0.995687 0.284375
vt 0.201904 0.527625
vt 0.202196 0.567389
vt 0.161357 0.564936
vt 0.158778 0.527625
vt 0.388112 0.527625
vt 0.388404 0.567389
vt 0.201904 0.340998
vt 0.158778 0.340998
vt 0.434431 0.527625
vt 0.432111 0.564936
vt 0.202196 0.291353
vt 0.161357 0.293806
vt 0.434431 0.340998
vt 0.388112 0.340998
vt 0.388404 0.291353
vt 0.432111 0.293806
vt 0.011806 0.766763
vt 0.001992 0.580555
vt 0.176073 0.571380
vt 0.185887 0.757588
vt 0.412873 0.572375
vt 0.403059 0.758583
vt 0.384182 0.757588
vt 0.393996 0.571380
vt 0.193184 0.757588
vt 0.202998 0.571380
vt 0.377080 0.580555
vt 0.367266 0.766763
vt 0.387339 0.771749
vt 0.378164 0.945831
vt 0.359286 0.944836
vt 0.368461 0.770754
vt 0.334273 0.945831
vt 0.325098 0.771749
vt 0.343976 0.770754
vt 0.353151 0.944836
vt 0.438141 0.571380
vt 0.447955 0.757588
vt 0.429077 0.758583
vt 0.419263 0.572375
vt 0.290910 0.944836
vt 0.300085 0.770754
vt 0.318963 0.771749
vt 0.309788 0.945831
vt 0.454344 0.757588
vt 0.464158 0.571380
vt 0.483036 0.572375
vt 0.473222 0.758583
vt 0.499239 0.758583
vt 0.489425 0.572375
vt 0.508303 0.571380
vt 0.518117 0.757588
vt 0.275600 0.770754
vt 0.284775 0.944836
vt 0.265897 0.945831
vt 0.256722 0.771749
vt 0.057451 0.049675
vt 0.011423 0.047249
vt 0.016262 0.002047
vt 0.059969 0.001895
vt 0.048276 0.223756
vt 0.002248 0.221330
vt 0.243659 0.059488
vt 0.246177 0.011709
vt 0.045441 0.277548
vt 0.001992 0.272801
vt 0.287076 0.061777
vt 0.287016 0.016317
vt 0.231649 0.287362
vt 0.234484 0.233570
vt 0.277902 0.235858
vt 0.272746 0.287071
vt 0.337948 0.059488
vt 0.294530 0.061777
vt 0.294590 0.016317
vt 0.335429 0.011709
vt 0.347122 0.233570
vt 0.303705 0.235858
vt 0.524155 0.049675
vt 0.521637 0.001895
vt 0.349957 0.287362
vt 0.308860 0.287071
vt 0.570183 0.047249
vt 0.565344 0.002047
vt 0.536165 0.277548
vt 0.533330 0.223756
vt 0.579358 0.221330
vt 0.579614 0.272801
vt 0.250587 0.770754
vt 0.250587 0.944836
vt 0.231683 0.944836
vt 0.231683 0.770754
vt 0.568720 0.571380
vt 0.568720 0.758007
vt 0.549843 0.758007
vt 0.549843 0.571380
vt 0.998008 0.752567
vt 0.998008 0.939194
vt 0.823927 0.939194
vt 0.823927 0.752567
vt 0.798914 0.939194
vt 0.798914 0.752567
vt 0.817791 0.752567
vt 0.817791 0.939194
vt 0.618697 0.948625
vt 0.618697 0.761999
vt 0.792778 0.761999
vt 0.792778 0.948625
vt 0.612562 0.761999
vt 0.612562 0.948625
vt 0.593684 0.948625
vt 0.593684 0.761999
vt 0.206643 0.944836
vt 0.206643 0.770754
vt 0.225547 0.770754
vt 0.225547 0.944836
vt 0.568671 0.948625
vt 0.568671 0.761999
vt 0.587549 0.761999
vt 0.587549 0.948625
vt 0.200508 0.770754
vt 0.200508 0.944836
vt 0.181604 0.944836
vt 0.181604 0.770754
vt 0.156565 0.944836
vt 0.156565 0.770754
vt 0.175469 0.770754
vt 0.175469 0.944836
vt 0.640373 0.238166
vt 0.640664 0.277930
vt 0.589451 0.275477
vt 0.586873 0.238166
vt 0.814454 0.238166
vt 0.814746 0.277930
vt 0.640373 0.051540
vt 0.586873 0.051540
vt 0.862526 0.238166
vt 0.860205 0.275477
vt 0.640664 0.001895
vt 0.589451 0.004348
vt 0.862526 0.051540
vt 0.814454 0.051540
vt 0.814746 0.001895
vt 0.860205 0.004348
vt 0.668731 0.331117
vt 0.668440 0.291353
vt 0.713641 0.293806
vt 0.716220 0.331117
vt 0.494650 0.331117
vt 0.494358 0.291353
vt 0.668731 0.517744
vt 0.716220 0.517744
vt 0.440566 0.331117
vt 0.442887 0.293806
vt 0.668440 0.567389
vt 0.713641 0.564936
vt 0.440566 0.517744
vt 0.494650 0.517744
vt 0.494358 0.567389
vt 0.442887 0.564936
vn 0.000000 1.000000 0.000000
vn 0.000000 1.000000 0.000000
vn 0.000000 1.000000 0.000000
vn 0.000000 1.000000 0.000000
vn -0.998614 0.000000 -0.052632
vn -0.998614 0.000000 -0.052632
vn -0.998614 0.000000 -0.052632
vn -0.998614 0.000000 -0.052632
vn 0.000000 -1.000000 0.000000
vn 0.000000 -1.000000 0.000000
vn 0.000000 -1.000000 0.000000
vn 0.000000 -1.000000 0.000000
vn 0.000000 -1.000000 0.000000
vn 0.000000 -1.000000 0.000000
vn 0.000000 -1.000000 0.000000
vn 0.000000 -1.000000 0.000000
vn -0.052631 0.000000 0.998614
vn -0.052631 0.000000 0.998614
vn -0.052631 0.000000 0.998614
vn -0.052631 0.000000 0.998614
vn -0.052631 0.000000 0.998614
vn -0.052631 0.000000 0.998614
vn -0.052631 0.000000 0.998614
vn -0.052631 0.000000 0.998614
vn -0.998614 0.000000 -0.052631
vn -0.998614 0.000000 -0.052631
vn -0.998614 0.000000 -0.052631
vn -0.998614 0.000000 -0.052631
vn 0.000000 -1.000000 0.000000
vn 0.000000 -1.000000 0.000000
vn 0.000000 -1.000000 0.000000
vn 0.000000 -1.000000 0.000000
vn 0.998614 0.000000 0.052631
vn 0.998614 0.000000 0.052631
vn 0.998614 0.000000 0.052631
vn 0.998614 0.000000 0.052631
vn 0.998614 0.000000 0.052631
vn 0.998614 0.000000 0.052631
vn 0.998614 0.000000 0.052631
vn 0.998614 0.000000 0.052631
vn -0.052631 0.000000 0.998614
vn -0.052631 0.000000 0.998614
vn -0.052631 0.000000 0.998614
vn -0.052631 0.000000 0.998614
vn -0.052630 0.000000 0.998614
vn -0.052630 0.000000 0.998614
vn -0.052630 0.000000 0.998614
vn -0.052630 0.000000 0.998614
vn 0.000000 1.000000 0.000000
vn 0.000000 1.000000 0.000000
vn 0.000000 1.000000 0.000000
vn 0.000000 1.000000 0.000000
vn 0.052631 0.000000 -0.998614
vn 0.052631 0.000000 -0.998614
vn 0.052631 0.000000 -0.998614
vn 0.052631 0.000000 -0.998614
vn -0.998614 0.000000 -0.052631
vn -0.998614 0.000000 -0.052631
vn -0.998614 0.000000 -0.052631
vn -0.998614 0.000000 -0.052631
vn 0.000000 1.000000 0.000000
vn 0.000000 1.000000 0.000000
vn 0.000000 1.000000 0.000000
vn 0.000000 1.000000 0.000000
vn 0.052631 0.000000 -0.998614
vn 0.052631 0.000000 -0.998614
vn 0.052631 0.000000 -0.998614
vn 0.052631 0.000000 -0.998614
vn 0.998614 0.000000 0.052631
vn 0.998614 0.000000 0.052631
vn 0.998614 0.000000 0.052631
vn 0.998614 0.000000 0.052631
vn -0.052631 0.000000 0.998614
vn -0.052631 0.000000 0.998614
vn -0.052631 0.000000 0.998614
vn -0.052631 0.000000 0.998614
vn 0.052633 0.000000 -0.998614
vn 0.052633 0.000000 -0.998614
vn 0.052633 0.000000 -0.998614
vn 0.052633 0.000000 -0.998614
vn 0.000000 -1.000000 0.000000
vn 0.000000 -1.000000 0.000000
vn 0.000000 -1.000000 0.000000
vn 0.000000 -1.000000 0.000000
vn 0.052631 0.000000 -0.998614
vn 0.052631 0.000000 -0.998614
vn 0.052631 0.000000 -0.998614
vn 0.052631 0.000000 -0.998614
vn -0.998614 0.000000 -0.052631
vn -0.998614 0.000000 -0.052631
vn -0.998614 0.000000 -0.052631
vn -0.998614 0.000000 -0.052631
vn 0.998614 0.000000 0.052632
vn 0.998614 0.000000 0.052632
vn 0.998614 0.000000 0.052632
vn 0.998614 0.000000 0.052632
vn 0.000000 -1.000000 0.000000
vn 0.000000 -1.000000 0.000000
vn 0.000000 -1.000000 0.000000
vn 0.000000 -1.000000 0.000000
vn 0.052631 0.000000 -0.998614
vn 0.052631 0.000000 -0.998614
vn 0.052631 0.000000 -0.998614
vn 0.052631 0.000000 -0.998614
vn -0.000003 1.000000 0.000000
vn -0.000003 1.000000 0.000000
vn -0.000003 1.000000 0.000000
vn -0.000003 1.000000 0.000000
vn 0.998614 0.000000 0.052631
vn 0.998614 0.000000 0.052631
vn 0.998614 0.000000 0.052631
vn 0.998614 0.000000 0.052631
vn 0.000000 1.000000 0.000000
vn 0.000000 1.000000 0.000000
vn 0.000000 1.000000 0.000000
vn 0.000000 1.000000 0.000000
vn -0.998614 0.000000 -0.052630
vn -0.998614 0.000000 -0.052630
vn -0.998614 0.000000 -0.052630
vn -0.998614 0.000000 -0.052630
vn -0.112368 0.081199 0.990343
vn -0.090518 0.121902 0.988406
vn -0.129762 0.105245 0.985944
vn -0.142555 0.051701 0.988436
vn -0.989134 0.081316 -0.122480
vn -0.987763 0.122124 -0.097001
vn -0.984071 0.105549 -0.143050
vn -0.986123 0.051874 -0.157704
vn 0.119911 0.081287 -0.989451
vn 0.095353 0.122067 -0.987931
vn 0.139668 0.105474 -0.984565
vn 0.153857 0.051831 -0.986733
vn 0.988600 0.081365 0.126687
vn 0.987483 0.122216 0.099700
vn 0.983236 0.105671 0.148598
vn 0.985092 0.051943 0.164001
vn 0.071158 -0.995249 -0.066460
vn 0.048563 -0.993504 -0.102912
vn 0.092049 -0.992034 -0.085997
vn 0.103720 -0.993830 -0.039286
vn 0.063595 0.994939 0.077789
vn 0.037198 0.992811 0.113768
vn 0.082306 0.991501 0.100758
vn 0.098949 0.993698 0.052668
vn -0.063854 0.995431 0.070991
vn -0.044108 0.993026 0.109330
vn 0.037198 0.992811 0.113768
vn 0.063595 0.994939 0.077789
vn -0.056224 -0.995739 -0.073097
vn -0.032655 -0.993717 -0.107048
vn 0.048563 -0.993504 -0.102912
vn 0.071158 -0.995249 -0.066460
vn -0.007644 0.081199 -0.996669
vn 0.013881 0.121901 -0.992445
vn 0.095353 0.122067 -0.987931
vn 0.119911 0.081287 -0.989451
vn 0.049283 0.051830 0.997439
vn 0.035401 0.105473 0.993792
vn -0.009023 0.122068 0.992481
vn 0.015239 0.081287 0.996574
vn -0.037864 0.051701 -0.997945
vn -0.025404 0.105246 -0.994122
vn 0.013881 0.121901 -0.992445
vn -0.007644 0.081199 -0.996669
vn -0.087684 -0.994930 -0.049264
vn -0.072589 -0.992877 -0.094478
vn -0.032655 -0.993717 -0.107048
vn -0.056224 -0.995739 -0.073097
vn -0.092585 0.994799 0.042456
vn -0.082498 0.992348 0.091863
vn -0.044108 0.993026 0.109330
vn -0.063854 0.995431 0.070991
vn 0.015239 0.081287 0.996574
vn -0.009023 0.122068 0.992481
vn -0.090518 0.121902 0.988406
vn -0.112368 0.081199 0.990343
vn -0.087684 0.994930 -0.049264
vn -0.092585 0.994799 0.042456
vn -0.063854 0.995431 0.070991
vn -0.056223 0.995739 -0.073096
vn -0.082498 -0.992348 0.091864
vn -0.092586 -0.994799 0.042456
vn -0.063854 -0.995431 0.070992
vn -0.044108 -0.993026 0.109331
vn -0.044108 -0.993026 0.109331
vn -0.063854 -0.995431 0.070992
vn 0.063596 -0.994939 0.077790
vn 0.037199 -0.992811 0.113769
vn 0.071157 0.995249 -0.066460
vn 0.063595 0.994939 0.077789
vn 0.098949 0.993698 0.052668
vn 0.103719 0.993831 -0.039286
vn 0.037199 -0.992811 0.113769
vn 0.063596 -0.994939 0.077790
vn 0.098951 -0.993698 0.052668
vn 0.082307 -0.991500 0.100758
vn 0.996529 0.081317 -0.017827
vn 0.992488 0.122124 0.007367
vn 0.987483 0.122216 0.099700
vn 0.988600 0.081365 0.126687
vn -0.996873 0.051943 0.059543
vn -0.993409 0.105671 0.044420
vn -0.992493 0.122216 -0.004653
vn -0.996440 0.081365 0.022067
vn 0.997237 0.051874 -0.053172
vn 0.993656 0.105549 -0.038816
vn 0.992488 0.122124 0.007367
vn 0.996529 0.081317 -0.017827
vn 0.048562 0.993504 -0.102911
vn 0.071157 0.995249 -0.066460
vn 0.103719 0.993831 -0.039286
vn 0.092048 0.992034 -0.085997
vn -0.032655 0.993718 -0.107048
vn -0.056223 0.995739 -0.073096
vn 0.071157 0.995249 -0.066460
vn 0.048562 0.993504 -0.102911
vn -0.072589 0.992877 -0.094478
vn -0.087684 0.994930 -0.049264
vn -0.056223 0.995739 -0.073096
vn -0.032655 0.993718 -0.107048
vn -0.092586 -0.994799 0.042456
vn -0.087684 -0.994930 -0.049264
vn -0.056224 -0.995739 -0.073097
vn -0.063854 -0.995431 0.070992
vn 0.063596 -0.994939 0.077790
vn 0.071158 -0.995249 -0.066460
vn 0.103720 -0.993830 -0.039286
vn 0.098951 -0.993698 0.052668
vn -0.996440 0.081365 0.022067
vn -0.992493 0.122216 -0.004653
vn -0.987763 0.122124 -0.097001
vn -0.989134 0.081316 -0.122480
vn 0.997740 -0.041511 -0.052839
vn 0.997237 0.051874 -0.053172
vn 0.996529 0.081317 -0.017827
vn 0.997723 -0.065108 -0.017601
vn -0.997381 -0.041565 0.059193
vn -0.996873 0.051943 0.059543
vn -0.996440 0.081365 0.022067
vn -0.997637 -0.065147 0.021832
vn -0.037576 -0.041377 -0.998437
vn -0.037864 0.051701 -0.997945
vn -0.007644 0.081199 -0.996669
vn -0.007440 -0.065012 -0.997857
vn 0.048962 -0.041477 0.997939
vn 0.049283 0.051830 0.997439
vn 0.015239 0.081287 0.996574
vn 0.015019 -0.065084 0.997767
vn 0.989815 -0.065147 0.126579
vn 0.988600 0.081365 0.126687
vn 0.985092 0.051943 0.164001
vn 0.985633 -0.041565 0.163706
vn 0.119818 -0.065084 -0.990660
vn 0.119911 0.081287 -0.989451
vn 0.153857 0.051831 -0.986733
vn 0.153590 -0.041478 -0.987264
vn -0.990345 -0.065108 -0.122381
vn -0.989134 0.081316 -0.122480
vn -0.986123 0.051874 -0.157704
vn -0.986658 -0.041511 -0.157426
vn -0.112291 -0.065012 0.991546
vn -0.112368 0.081199 0.990343
vn -0.142555 0.051701 0.988436
vn -0.142320 -0.041376 0.988956
vn -0.090472 -0.097649 0.991100
vn -0.112291 -0.065012 0.991546
vn -0.142320 -0.041376 0.988956
vn -0.129531 -0.083927 0.988017
vn -0.990473 -0.097829 -0.096919
vn -0.990345 -0.065108 -0.122381
vn -0.986658 -0.041511 -0.157426
vn -0.986172 -0.084170 -0.142761
vn 0.095281 -0.097783 -0.990636
vn 0.119818 -0.065084 -0.990660
vn 0.153590 -0.041478 -0.987264
vn 0.139394 -0.084110 -0.986658
vn 0.990199 -0.097903 0.099603
vn 0.989815 -0.065147 0.126579
vn 0.985633 -0.041565 0.163706
vn 0.985348 -0.084267 0.148285
vn 0.014211 -0.097649 -0.995119
vn -0.007440 -0.065012 -0.997857
vn 0.119818 -0.065084 -0.990660
vn 0.095281 -0.097783 -0.990636
vn 0.034908 -0.084110 0.995845
vn 0.048962 -0.041477 0.997939
vn 0.015019 -0.065084 0.997767
vn -0.009379 -0.097784 0.995164
vn -0.024956 -0.083928 -0.996159
vn -0.037576 -0.041377 -0.998437
vn -0.007440 -0.065012 -0.997857
vn 0.014211 -0.097649 -0.995119
vn -0.009379 -0.097784 0.995164
vn 0.015019 -0.065084 0.997767
vn -0.112291 -0.065012 0.991546
vn -0.090472 -0.097649 0.991100
vn 0.995173 -0.097829 0.007733
vn 0.997723 -0.065108 -0.017601
vn 0.989815 -0.065147 0.126579
vn 0.990199 -0.097903 0.099603
vn -0.995476 -0.084267 0.043888
vn -0.997381 -0.041565 0.059193
vn -0.997637 -0.065147 0.021832
vn -0.995183 -0.097903 -0.005035
vn 0.995715 -0.084171 -0.038307
vn 0.997740 -0.041511 -0.052839
vn 0.997723 -0.065108 -0.017601
vn 0.995173 -0.097829 0.007733
vn -0.995183 -0.097903 -0.005035
vn -0.997637 -0.065147 0.021832
vn -0.990345 -0.065108 -0.122381
vn -0.990473 -0.097829 -0.096919
s off
g box_msh
usemtl boxs
f 6/73/1 4/74/2 1/75/3 5/76/4
f 17/1/5 9/2/6 73/3/7 51/4/8
f 16/77/9 14/78/10 78/79/11 80/80/12
f 3/81/13 8/82/14 7/83/15 2/84/16
f 7/145/17 8/146/18 63/147/19 62/148/20
f 24/149/21 16/150/22 80/151/23 68/152/24
f 22/5/25 14/6/26 16/7/27 24/8/28
f 9/85/29 11/86/30 75/87/31 73/88/32
f 8/9/33 3/10/34 54/11/35 63/12/36
f 23/13/37 15/14/38 13/15/39 21/16/40
f 18/153/41 10/154/42 12/155/43 20/156/44
f 15/157/45 23/158/46 67/159/47 79/160/48
f 19/89/49 17/90/50 51/91/51 53/92/52
f 19/161/53 11/162/54 9/163/55 17/164/56
f 2/17/57 7/18/58 62/19/59 50/20/60
f 22/93/61 24/94/62 68/95/63 66/96/64
f 14/165/65 22/166/66 66/167/67 78/168/68
f 4/21/69 6/22/70 55/23/71 64/24/72
f 6/169/73 5/170/74 49/171/75 55/172/76
f 21/173/77 13/174/78 77/175/79 65/176/80
f 12/97/81 10/98/82 74/99/83 76/100/84
f 1/177/85 4/178/86 64/179/87 61/180/88
f 5/25/89 1/26/90 61/27/91 49/28/92
f 20/29/93 12/30/94 76/31/95 56/32/96
f 13/101/97 15/102/98 79/103/99 77/104/100
f 3/181/101 2/182/102 50/183/103 54/184/104
f 23/105/105 21/106/106 65/107/107 67/108/108
f 11/33/109 19/34/110 53/35/111 75/36/112
f 18/109/113 20/110/114 56/111/115 52/112/116
f 10/37/117 18/38/118 52/39/119 74/40/120
f 76/185/121 29/186/122 30/187/123 70/188/124
f 80/41/125 34/42/126 35/43/127 71/44/128
f 73/201/129 39/202/130 40/203/131 72/204/132
f 77/57/133 44/58/134 28/59/135 27/60/136
f 62/113/137 47/114/138 42/115/139 43/116/140
f 61/129/141 46/130/142 28/131/143 44/132/144
f 64/133/145 29/134/146 46/130/147 61/129/148
f 63/117/149 38/118/150 47/114/151 62/113/152
f 75/205/153 48/206/154 39/202/155 73/201/156
f 27/193/157 28/194/158 46/190/159 74/189/160
f 71/209/161 35/210/162 48/206/163 75/205/164
f 57/121/165 37/122/166 38/118/167 63/117/168
f 58/137/169 30/138/170 29/134/171 64/133/172
f 74/189/173 46/190/174 29/186/175 76/185/176
f 34/141/177 58/137/178 64/133/179 55/142/180
f 32/128/181 33/125/182 54/126/183 45/127/184
f 45/127/185 54/126/186 50/119/187 25/123/188
f 49/135/189 61/129/190 44/132/191 60/136/192
f 25/123/193 50/119/194 59/120/195 26/124/196
f 79/61/197 60/62/198 44/58/199 77/57/200
f 70/49/201 30/50/202 58/46/203 78/45/204
f 72/65/205 40/66/206 60/62/207 79/61/208
f 39/139/209 49/135/210 60/136/211 40/140/212
f 48/143/213 55/142/214 49/135/215 39/139/216
f 35/144/217 34/141/218 55/142/219 48/143/220
f 33/125/221 57/121/222 63/117/223 54/126/224
f 50/119/225 62/113/226 43/116/227 59/120/228
f 78/45/229 58/46/230 34/42/231 80/41/232
f 41/69/233 72/65/234 79/61/235 67/70/236
f 31/53/237 70/49/238 78/45/239 66/54/240
f 36/213/241 71/209/242 75/205/243 53/214/244
f 69/197/245 27/193/246 74/189/247 52/198/248
f 65/63/249 77/57/250 27/60/251 69/64/252
f 51/207/253 73/201/254 72/204/255 41/208/256
f 68/47/257 80/41/258 71/44/259 36/48/260
f 56/191/261 76/185/262 70/188/263 31/192/264
f 45/195/265 56/191/266 31/192/267 32/196/268
f 57/51/269 68/47/270 36/48/271 37/52/272
f 47/211/273 51/207/274 41/208/275 42/212/276
f 59/67/277 65/63/278 69/64/279 26/68/280
f 38/215/281 53/214/282 51/207/283 47/211/284
f 26/200/285 69/197/286 52/198/287 25/199/288
f 37/216/289 36/213/290 53/214/291 38/215/292
f 25/199/293 52/198/294 56/191/295 45/195/296
f 43/71/297 67/70/298 65/63/299 59/67/300
f 32/56/301 31/53/302 66/54/303 33/55/304
f 42/72/305 41/69/306 67/70/307 43/71/308
f 33/55/309 66/54/310 68/47/311 57/51/312
