# This file uses centimeters as units for non-parametric coordinates.

mtllib cartel.mtl
g default
v -3.900000 3.869916 0.100000
v 3.900000 3.869917 0.100000
v -3.900000 3.869916 -0.100000
v 3.900000 3.869917 -0.100000
v -3.900000 3.669917 0.100000
v 3.900000 3.669917 0.100000
v -3.900000 3.669917 -0.100000
v 3.900000 3.669917 -0.100000
v 3.900001 0.000000 0.100000
v 3.900001 7.150303 0.100000
v 3.900001 0.000000 -0.100000
v 3.900001 7.150303 -0.100000
v 4.100000 0.000000 0.100000
v 4.100001 7.150304 0.100000
v 4.100000 0.000000 -0.100000
v 4.100001 7.150304 -0.100000
v -4.099999 0.000000 0.100000
v -4.099999 7.150304 0.100000
v -4.099999 0.000000 -0.100000
v -4.099999 7.150304 -0.100000
v -3.900000 0.000000 0.100000
v -3.900000 7.150304 0.100000
v -3.900000 0.000000 -0.100000
v -3.900000 7.150304 -0.100000
v -3.900000 6.963946 0.100000
v 3.900000 6.963946 0.100000
v -3.900000 6.963946 -0.100000
v 3.900000 6.963946 -0.100000
v -3.900000 6.763946 0.100000
v 3.900000 6.763947 0.100000
v -3.900000 6.763946 -0.100000
v 3.900000 6.763947 -0.100000
v -3.508238 3.679444 0.131090
v -3.758238 3.929444 0.131090
v -3.633237 3.712938 0.131090
v -3.724743 3.804444 0.131090
v 3.779106 3.929444 0.131090
v 3.529107 3.679444 0.131090
v 3.745612 3.804444 0.131090
v 3.654107 3.712938 0.131089
v -3.508238 6.979508 0.131090
v -3.758238 6.729508 0.131090
v -3.633238 6.946015 0.131091
v -3.724744 6.854508 0.131091
v 3.529106 6.979509 0.131090
v 3.779105 6.729509 0.131090
v 3.654106 6.946015 0.131091
v 3.745612 6.854509 0.131091
v 3.529106 6.979508 -0.053876
v 3.779106 6.729508 -0.053877
v 3.529106 3.679444 -0.053876
v 3.779106 3.929444 -0.053876
v 3.745611 3.804444 -0.053876
v 3.654105 3.712938 -0.053876
v -3.508239 3.679444 -0.053876
v -3.508238 6.979509 -0.053877
v -3.633239 3.712938 -0.053876
v -3.758238 3.929444 -0.053876
v -3.724744 3.804444 -0.053876
v -3.758238 6.729509 -0.053877
v -3.724744 6.854509 -0.053877
v -3.633238 6.946015 -0.053877
v 3.654106 6.946015 -0.053877
v 3.745612 6.854508 -0.053877
vt 0.507895 0.003906
vt 0.533336 0.996094
vt 0.507895 0.996094
vt 0.431573 0.996094
vt 0.457014 0.003906
vt 0.457014 0.996094
vt 0.482454 0.996094
vt 0.482454 0.003906
vt 0.727135 0.003906
vt 0.752576 0.913450
vt 0.727135 0.913450
vt 0.650813 0.003906
vt 0.676254 0.913450
vt 0.650813 0.913450
vt 0.676254 0.003906
vt 0.701695 0.913450
vt 0.701695 0.003906
vt 0.895495 0.029347
vt 0.870054 0.003906
vt 0.895495 0.003906
vt 0.962348 0.003906
vt 0.936908 0.029347
vt 0.936908 0.003906
vt 0.811315 0.003906
vt 0.836756 0.913450
vt 0.811315 0.913450
vt 0.836756 0.003906
vt 0.862196 0.913450
vt 0.760434 0.003906
vt 0.785874 0.913450
vt 0.760434 0.913450
vt 0.785874 0.003906
vt 0.928921 0.029347
vt 0.903481 0.003906
vt 0.928921 0.003906
vt 0.895495 0.037212
vt 0.870054 0.062653
vt 0.870054 0.037212
vt 0.592075 0.003906
vt 0.617515 0.996094
vt 0.592075 0.996094
vt 0.617515 0.003906
vt 0.642956 0.996094
vt 0.541193 0.003906
vt 0.566634 0.996094
vt 0.541193 0.996094
vt 0.566634 0.003906
vt 0.003906 0.035707
vt 0.035707 0.003906
vt 0.423686 0.035707
vt 0.533336 0.003906
vt 0.431573 0.003906
vt 0.752576 0.003906
vt 0.870054 0.029347
vt 0.962348 0.029347
vt 0.862196 0.003906
vt 0.903481 0.029347
vt 0.895495 0.062653
vt 0.642956 0.003906
vt 0.391885 0.003906
vt 0.407786 0.008167
vt 0.419426 0.019807
vt 0.423686 0.930882
vt 0.003906 0.930882
vt 0.419426 0.946783
vt 0.391885 0.962683
vt 0.407786 0.958422
vt 0.035707 0.962683
vt 0.019807 0.958422
vt 0.008167 0.946783
vt 0.008167 0.019807
vt 0.019807 0.008167
vt 0.003906 0.035707
vt 0.035707 0.003906
vt 0.423686 0.035707
vt 0.391885 0.003906
vt 0.407786 0.008167
vt 0.419426 0.019807
vt 0.423686 0.930882
vt 0.003906 0.930882
vt 0.419426 0.946783
vt 0.391885 0.962683
vt 0.407786 0.958422
vt 0.035707 0.962683
vt 0.019807 0.958422
vt 0.008167 0.946783
vt 0.008167 0.019807
vt 0.019807 0.008167
vn 0.000000 1.000000 0.000000
vn 0.000000 1.000000 0.000000
vn 0.000000 1.000000 0.000000
vn 0.000000 0.000000 -1.000000
vn 0.000000 0.000000 -1.000000
vn 0.000000 0.000000 -1.000000
vn 0.000000 -1.000000 0.000000
vn 0.000000 -1.000000 0.000000
vn 0.000000 -1.000000 0.000000
vn 0.000000 0.000000 1.000000
vn 0.000000 0.000000 1.000000
vn 0.000000 0.000000 1.000000
vn -1.000000 0.000000 0.000000
vn -1.000000 0.000000 0.000000
vn -1.000000 0.000000 0.000000
vn 0.000000 0.000000 -1.000000
vn 0.000000 0.000000 -1.000000
vn 0.000000 0.000000 -1.000000
vn 1.000000 0.000000 0.000000
vn 1.000000 0.000000 0.000000
vn 1.000000 0.000000 0.000000
vn 0.000000 0.000000 1.000000
vn 0.000000 0.000000 1.000000
vn 0.000000 0.000000 1.000000
vn 0.000000 -1.000000 0.000000
vn 0.000000 -1.000000 0.000000
vn 0.000000 -1.000000 0.000000
vn 0.000000 1.000000 0.000000
vn 0.000000 1.000000 0.000000
vn 0.000000 1.000000 0.000000
vn -1.000000 0.000000 0.000000
vn -1.000000 0.000000 0.000000
vn -1.000000 0.000000 0.000000
vn 0.000000 0.000000 -1.000000
vn 0.000000 0.000000 -1.000000
vn 0.000000 0.000000 -1.000000
vn 1.000000 0.000000 0.000000
vn 1.000000 0.000000 0.000000
vn 1.000000 0.000000 0.000000
vn 0.000000 0.000000 1.000000
vn 0.000000 0.000000 1.000000
vn 0.000000 0.000000 1.000000
vn 0.000000 -1.000000 0.000000
vn 0.000000 -1.000000 0.000000
vn 0.000000 -1.000000 0.000000
vn 0.000000 1.000000 0.000000
vn 0.000000 1.000000 0.000000
vn 0.000000 1.000000 0.000000
vn 0.000000 1.000000 0.000000
vn 0.000000 1.000000 0.000000
vn 0.000000 1.000000 0.000000
vn 0.000000 0.000000 -1.000000
vn 0.000000 0.000000 -1.000000
vn 0.000000 0.000000 -1.000000
vn 0.000000 -1.000000 0.000000
vn 0.000000 -1.000000 0.000000
vn 0.000000 -1.000000 0.000000
vn 0.000000 0.000000 1.000000
vn 0.000000 0.000000 1.000000
vn 0.000000 0.000000 1.000000
vn 0.000000 0.000000 1.000000
vn 0.000000 0.000000 1.000000
vn 0.000000 0.000000 1.000000
vn 0.000000 1.000000 0.000000
vn 0.000000 1.000000 0.000000
vn 0.000000 1.000000 0.000000
vn 0.000000 0.000000 -1.000000
vn 0.000000 0.000000 -1.000000
vn 0.000000 0.000000 -1.000000
vn 0.000000 -1.000000 0.000000
vn 0.000000 -1.000000 0.000000
vn 0.000000 -1.000000 0.000000
vn 0.000000 0.000000 1.000000
vn 0.000000 0.000000 1.000000
vn 0.000000 0.000000 1.000000
vn -1.000000 0.000000 0.000000
vn -1.000000 0.000000 0.000000
vn -1.000000 0.000000 0.000000
vn 0.000000 0.000000 -1.000000
vn 0.000000 0.000000 -1.000000
vn 0.000000 0.000000 -1.000000
vn 1.000000 0.000000 0.000000
vn 1.000000 0.000000 0.000000
vn 1.000000 0.000000 0.000000
vn 0.000000 0.000000 1.000000
vn 0.000000 0.000000 1.000000
vn 0.000000 0.000000 1.000000
vn 0.000000 -1.000000 0.000000
vn 0.000000 -1.000000 0.000000
vn 0.000000 -1.000000 0.000000
vn 0.000000 1.000000 0.000000
vn 0.000000 1.000000 0.000000
vn 0.000000 1.000000 0.000000
vn -1.000000 0.000000 0.000000
vn -1.000000 0.000000 0.000000
vn -1.000000 0.000000 0.000000
vn 0.000000 0.000000 -1.000000
vn 0.000000 0.000000 -1.000000
vn 0.000000 0.000000 -1.000000
vn 1.000000 0.000000 0.000000
vn 1.000000 0.000000 0.000000
vn 1.000000 0.000000 0.000000
vn 0.000000 0.000000 1.000000
vn 0.000000 0.000000 1.000000
vn 0.000000 0.000000 1.000000
vn 0.000000 -1.000000 0.000000
vn 0.000000 -1.000000 0.000000
vn 0.000000 -1.000000 0.000000
vn 0.000000 1.000000 0.000000
vn 0.000000 1.000000 0.000000
vn 0.000000 1.000000 0.000000
vn 0.000000 1.000000 0.000000
vn 0.000000 1.000000 0.000000
vn 0.000000 1.000000 0.000000
vn 0.000000 0.000000 -1.000000
vn 0.000000 0.000000 -1.000000
vn 0.000000 0.000000 -1.000000
vn 0.000000 -1.000000 0.000000
vn 0.000000 -1.000000 0.000000
vn 0.000000 -1.000000 0.000000
vn 0.000000 0.000000 1.000000
vn 0.000000 0.000000 1.000000
vn 0.000000 0.000000 1.000000
vn 0.000000 0.000000 1.000000
vn 0.000000 0.000000 1.000000
vn 0.000000 0.000000 1.000000
vn 0.000000 0.000000 1.000000
vn 0.000000 0.000000 1.000000
vn 0.000000 0.000000 1.000000
vn 0.000000 0.000000 1.000000
vn 0.000000 0.000000 1.000000
vn 0.000000 0.000000 1.000000
vn 0.000000 0.000000 1.000000
vn 0.000000 0.000000 1.000000
vn 0.000000 0.000000 1.000000
vn 0.000000 0.000000 1.000000
vn 0.000000 0.000000 1.000000
vn 0.000000 0.000000 1.000000
vn 0.000000 0.000000 1.000000
vn 0.000000 0.000000 1.000000
vn 0.000000 0.000000 1.000000
vn 0.000000 0.000000 1.000000
vn 0.000000 0.000000 1.000000
vn 0.000000 0.000000 1.000000
vn 0.000000 0.000000 1.000000
vn 0.000000 0.000000 1.000000
vn 0.000000 0.000000 1.000000
vn 0.000000 0.000000 1.000000
vn 0.000000 0.000000 1.000000
vn 0.000000 0.000000 1.000000
vn 0.000000 0.000000 1.000000
vn 0.000000 0.000000 1.000000
vn 0.000000 0.000000 1.000000
vn 0.000000 0.000000 1.000000
vn 0.000000 0.000000 1.000000
vn 0.000000 0.000000 1.000000
vn 0.000000 0.000000 1.000000
vn 0.000000 0.000000 1.000000
vn 0.000000 0.000000 1.000000
vn 0.000000 0.000000 1.000000
vn 0.000000 0.000000 1.000000
vn 0.000000 0.000000 1.000000
vn -0.000000 0.000000 -1.000000
vn -0.000000 0.000000 -1.000000
vn -0.000000 0.000000 -1.000000
vn -0.000000 0.000000 -1.000000
vn -0.000000 0.000000 -1.000000
vn -0.000000 0.000000 -1.000000
vn -0.000000 0.000000 -1.000000
vn -0.000000 0.000000 -1.000000
vn -0.000000 0.000000 -1.000000
vn -0.000000 0.000000 -1.000000
vn -0.000000 0.000000 -1.000000
vn -0.000000 0.000000 -1.000000
vn -0.000000 0.000000 -1.000000
vn -0.000000 0.000000 -1.000000
vn -0.000000 0.000000 -1.000000
vn -0.000000 0.000000 -1.000000
vn -0.000000 0.000000 -1.000000
vn -0.000000 0.000000 -1.000000
vn -0.000000 0.000000 -1.000000
vn -0.000000 0.000000 -1.000000
vn -0.000000 0.000000 -1.000000
vn -0.000000 0.000000 -1.000000
vn -0.000000 0.000000 -1.000000
vn -0.000000 0.000000 -1.000000
vn -0.000000 0.000000 -1.000000
vn -0.000000 0.000000 -1.000000
vn -0.000000 0.000000 -1.000000
vn -0.000000 0.000000 -1.000000
vn -0.000000 0.000000 -1.000000
vn -0.000000 0.000000 -1.000000
vn -0.000000 0.000000 -1.000000
vn -0.000000 0.000000 -1.000000
vn -0.000000 0.000000 -1.000000
vn -0.000000 0.000000 -1.000000
vn -0.000000 0.000000 -1.000000
vn -0.000000 0.000000 -1.000000
vn -0.000000 0.000000 -1.000000
vn -0.000000 0.000000 -1.000000
vn -0.000000 0.000000 -1.000000
vn -0.000000 0.000000 -1.000000
vn -0.000000 0.000000 -1.000000
vn -0.000000 0.000000 -1.000000
s off
g cartel
usemtl initialShadingGroup
f 2/1/1 3/2/2 1/3/3
f 3/4/4 8/5/5 7/6/6
f 8/5/7 5/7/8 7/6/9
f 6/8/10 1/3/11 5/7/12
f 10/9/13 11/10/14 9/11/15
f 12/12/16 15/13/17 11/14/18
f 16/15/19 13/16/20 15/13/21
f 14/17/22 9/11/23 13/16/24
f 15/18/25 9/19/26 11/20/27
f 12/21/28 14/22/29 16/23/30
f 18/24/31 19/25/32 17/26/33
f 20/27/34 23/28/35 19/25/36
f 24/29/37 21/30/38 23/31/39
f 22/32/40 17/26/41 21/30/42
f 23/33/43 17/34/44 19/35/45
f 20/36/46 22/37/47 24/38/48
f 26/39/49 27/40/50 25/41/51
f 28/42/52 31/43/53 27/40/54
f 32/44/55 29/45/56 31/46/57
f 30/47/58 25/41/59 29/45/60
f 41/48/61 42/49/62 33/50/63
f 2/1/64 4/51/65 3/2/66
f 3/4/67 4/52/68 8/5/69
f 8/5/70 6/8/71 5/7/72
f 6/8/73 2/1/74 1/3/75
f 10/9/76 12/53/77 11/10/78
f 12/12/79 16/15/80 15/13/81
f 16/15/82 14/17/83 13/16/84
f 14/17/85 10/9/86 9/11/87
f 15/18/88 13/54/89 9/19/90
f 12/21/91 10/55/92 14/22/93
f 18/24/94 20/27/95 19/25/96
f 20/27/97 24/56/98 23/28/99
f 24/29/100 22/32/101 21/30/102
f 22/32/103 18/24/104 17/26/105
f 23/33/106 21/57/107 17/34/108
f 20/36/109 18/58/110 22/37/111
f 26/39/112 28/42/113 27/40/114
f 28/42/115 32/59/116 31/43/117
f 32/44/118 30/47/119 29/45/120
f 30/47/121 26/39/122 25/41/123
f 42/49/124 34/60/125 33/50/126
f 34/60/127 36/61/128 33/50/129
f 36/61/130 35/62/131 33/50/132
f 33/50/133 38/63/134 45/64/135
f 38/63/136 40/65/137 37/66/138
f 40/65/139 39/67/140 37/66/141
f 37/66/142 46/68/143 45/64/144
f 46/68/145 48/69/146 45/64/147
f 48/69/148 47/70/149 45/64/150
f 45/64/151 41/48/152 33/50/153
f 41/48/154 43/71/155 42/49/156
f 43/71/157 44/72/158 42/49/159
f 38/63/160 37/66/161 45/64/162
f 49/73/163 50/74/164 51/75/165
f 50/74/166 52/76/167 51/75/168
f 52/76/169 53/77/170 51/75/171
f 53/77/172 54/78/173 51/75/174
f 51/75/175 55/79/176 56/80/177
f 55/79/178 57/81/179 58/82/180
f 57/81/181 59/83/182 58/82/183
f 58/82/184 60/84/185 56/80/186
f 60/84/187 61/85/188 56/80/189
f 61/85/190 62/86/191 56/80/192
f 56/80/193 49/73/194 51/75/195
f 49/73/196 63/87/197 50/74/198
f 63/87/199 64/88/200 50/74/201
f 55/79/202 58/82/203 56/80/204
